<svg xmlns="http://www.w3.org/2000/svg" version="1.1" xmlns:xlink="http://www.w3.org/1999/xlink" xmlns:svgjs="http://svgjs.com/svgjs" width="512" height="512"><svg width="512" height="512" viewBox="0 0 512 512" fill="none" xmlns="http://www.w3.org/2000/svg">
<mask id="SvgjsMask1000" fill="white">
<path fill-rule="evenodd" clip-rule="evenodd" d="M268.173 458.171C267.188 454.486 269.857 450.834 273.655 450.49C372.447 441.543 450 358.254 450 256.643C450 149.05 363.049 62 256 62C148.951 62 62 149.05 62 256.643C62 285.323 68.1785 312.544 79.2692 337.045C80.8336 340.501 78.9962 344.595 75.3325 345.579L51.9446 351.864C49.12 352.623 46.1519 351.238 44.9881 348.555C32.7731 320.394 26 289.311 26 256.643C26 129.262 128.975 26 256 26C383.025 26 486 129.262 486 256.643C486 375.64 396.133 473.589 280.744 485.966C277.853 486.276 275.182 484.402 274.431 481.593L268.173 458.171Z"></path>
</mask>
<path d="M280.744 485.966L283.304 509.829L280.744 485.966ZM274.431 481.593L251.244 487.788L274.431 481.593ZM79.2692 337.045L57.4049 346.942L79.2692 337.045ZM75.3325 345.579L81.5603 368.757L75.3325 345.579ZM51.9446 351.864L45.7167 328.686L51.9446 351.864ZM44.9881 348.555L67.006 339.004L44.9881 348.555ZM273.655 450.49L271.491 426.587L273.655 450.49ZM268.173 458.171L291.359 451.976L268.173 458.171ZM275.82 474.392C386.916 464.331 474 370.732 474 256.643H426C426 345.777 357.979 418.755 271.491 426.587L275.82 474.392ZM474 256.643C474 135.855 376.363 38 256 38V86C349.734 86 426 162.245 426 256.643H474ZM256 38C135.637 38 38 135.855 38 256.643H86C86 162.245 162.266 86 256 86V38ZM38 256.643C38 288.801 44.9335 319.391 57.4049 346.942L101.134 327.148C91.4235 305.697 86 281.845 86 256.643H38ZM58.1724 375.041L81.5603 368.757L69.1046 322.401L45.7167 328.686L58.1724 375.041ZM2 256.643C2 292.657 9.47172 326.985 22.9701 358.105L67.006 339.004C56.0746 313.802 50 285.966 50 256.643H2ZM256 2C115.657 2 2 116.071 2 256.643H50C50 142.454 142.292 50 256 50V2ZM510 256.643C510 116.071 396.343 2 256 2V50C369.708 50 462 142.454 462 256.643H510ZM283.304 509.829C410.809 496.153 510 387.982 510 256.643H462C462 363.298 381.457 451.026 278.185 462.103L283.304 509.829ZM244.986 464.367L251.244 487.788L297.617 475.397L291.359 451.976L244.986 464.367ZM278.185 462.103C287.316 461.124 295.382 467.03 297.617 475.397L251.244 487.788C254.981 501.774 268.39 511.429 283.304 509.829L278.185 462.103ZM57.4049 346.942C53.1248 337.487 57.8656 325.421 69.1046 322.401L81.5603 368.757C100.127 363.768 108.542 343.516 101.134 327.148L57.4049 346.942ZM45.7167 328.686C54.0645 326.443 63.3044 330.47 67.006 339.004L22.9701 358.105C28.9994 372.006 44.1755 378.802 58.1724 375.041L45.7167 328.686ZM271.491 426.587C253.553 428.212 239.983 445.644 244.986 464.367L291.359 451.976C294.393 463.329 286.16 473.455 275.82 474.392L271.491 426.587Z" fill="#F43F5E" mask="url(#path-1-inside-1_831_21)"></path>
<path fill-rule="evenodd" clip-rule="evenodd" d="M108.879 200.965C106.861 200.419 104.757 201.518 104.104 203.505C98.8464 219.512 96 236.63 96 254.419C96 343.662 167.634 416.007 256 416.007C344.366 416.007 416 343.662 416 254.419C416 176.272 361.07 111.082 288.077 96.0801C286.034 95.6603 284.034 96.9312 283.499 98.9466L279.393 114.422C278.789 116.701 280.282 119.001 282.593 119.465C344.832 131.96 392 187.465 392 254.419C392 330.631 330.888 392.007 256 392.007C181.112 392.007 120 330.631 120 254.419C120 239.017 122.496 224.221 127.098 210.414C127.841 208.185 126.593 205.759 124.324 205.145L108.879 200.965Z" fill="#F43F5E"></path>
</svg><style>@media (prefers-color-scheme: light) { :root { filter: none; } }
</style></svg>