<svg width="512" height="512" viewBox="0 0 512 512" fill="none" xmlns="http://www.w3.org/2000/svg">
<path fill-rule="evenodd" clip-rule="evenodd" d="M274.865 482.942C274.219 480.534 275.931 478.131 278.412 477.883C390.494 466.646 478 372.042 478 257C478 134.393 378.607 35 256 35C133.393 35 34 134.393 34 257C34 288.972 40.7586 319.365 52.9251 346.829C53.9309 349.1 52.6984 351.754 50.2997 352.396C48.4244 352.899 46.4562 351.98 45.6686 350.205C33.025 321.715 26 290.178 26 257C26 129.975 128.975 27 256 27C383.025 27 486 129.975 486 257C486 376.242 395.259 474.29 279.062 485.858C277.14 486.049 275.364 484.808 274.865 482.942Z" fill="#F43F5E"/>
<path fill-rule="evenodd" clip-rule="evenodd" d="M70.2944 187.751C68.7872 187.348 67.2199 188.167 66.715 189.643C59.7692 209.952 56 231.734 56 254.396C56 364.853 145.543 454.396 256 454.396C366.457 454.396 456 364.853 456 254.396C456 157.028 386.421 75.9115 294.272 58.0542C292.743 57.758 291.248 58.704 290.845 60.2081C290.39 61.9058 291.495 63.6279 293.22 63.9632C382.557 81.3225 450 159.983 450 254.396C450 361.54 363.143 448.396 256 448.396C148.857 448.396 62 361.54 62 254.396C62 232.446 65.6455 211.347 72.3642 191.672C72.9312 190.011 71.9892 188.206 70.2944 187.751Z" fill="#F43F5E"/>
<path fill-rule="evenodd" clip-rule="evenodd" d="M381.043 370.465C380.842 370.263 380.513 370.271 380.321 370.48C349.438 404 305.171 425 256 425C162.664 425 87 349.336 87 256C87 162.664 162.664 87 256 87C305.385 87 349.823 108.183 380.723 141.958C380.915 142.169 381.245 142.176 381.447 141.975C381.636 141.786 381.643 141.482 381.463 141.285C350.38 107.309 305.678 86 256 86C162.112 86 86 162.112 86 256C86 349.888 162.112 426 256 426C305.463 426 349.992 404.875 381.058 371.156C381.239 370.959 381.233 370.654 381.043 370.465Z" fill="#F43F5E"/>
<path d="M201.6 257.84V287.12C194.52 293.12 185.16 296.72 175.08 296.72C152.64 296.72 134.28 278.84 134.28 257C134.28 235.16 152.64 217.4 175.08 217.4C185.52 217.4 195.12 221.12 202.32 227.48L203.88 225.92C196.2 219.2 186.12 215.12 175.08 215.12C151.44 215.12 132 233.96 132 257C132 280.04 151.44 299 175.08 299C186.12 299 196.32 294.8 204 288.08V257.84H201.6ZM242.852 308L271.892 236.96H269.012L245.252 296.24L221.132 236.96H218.372L244.052 299.24L240.932 307.16C237.692 315.32 232.532 319.88 226.412 319.88C222.812 319.88 219.332 318.92 216.692 317.12L215.612 319.16C218.492 321.2 222.332 322.28 226.652 322.28C233.252 322.28 239.012 317.24 242.852 308ZM288.67 253.88V236.96H286.27V299H288.67V265.04C289.75 249.2 298.39 239.72 312.43 239.36V236.96C300.67 237.2 292.39 243.32 288.67 253.88ZM349.737 296.6C333.777 296.6 322.257 284.84 322.257 267.92H378.537C378.537 249.92 367.017 236.96 349.737 236.96C332.577 236.96 319.857 249.92 319.857 267.92C319.857 286.04 332.577 299 349.737 299C359.337 299 367.737 295.4 373.377 289.28L371.697 287.6C366.537 293.36 358.737 296.6 349.737 296.6ZM349.737 239.36C365.097 239.36 375.057 250.04 376.137 265.52H322.377C323.337 250.04 334.497 239.36 349.737 239.36Z" fill="#F43F5E"/>
</svg>
